<mxfile host="app.diagrams.net" agent="Mozilla/5.0 (Windows NT 10.0; Win64; x64) AppleWebKit/537.36 (KHTML, like Gecko) Chrome/135.0.0.0 Safari/537.36 Edg/135.0.0.0" version="26.2.13">
  <diagram name="Page-1" id="iFgxUM5xHQ9VFHjvoKzq">
    <mxGraphModel dx="996" dy="576" grid="1" gridSize="10" guides="1" tooltips="1" connect="1" arrows="1" fold="1" page="1" pageScale="1" pageWidth="583" pageHeight="827" math="0" shadow="0">
      <root>
        <mxCell id="0" />
        <mxCell id="1" parent="0" />
        <mxCell id="x7fuLp5OrmRpF7wYB0vG-1" value="" style="rounded=0;whiteSpace=wrap;html=1;" parent="1" vertex="1">
          <mxGeometry x="70" y="80" width="178" height="390" as="geometry" />
        </mxCell>
        <mxCell id="x7fuLp5OrmRpF7wYB0vG-2" value="&lt;font style=&quot;font-size: 20px;&quot;&gt;&lt;b&gt;Sources&lt;/b&gt;&lt;/font&gt;" style="rounded=0;whiteSpace=wrap;html=1;strokeColor=none;" parent="1" vertex="1">
          <mxGeometry x="99" y="50" width="120" height="60" as="geometry" />
        </mxCell>
        <mxCell id="x7fuLp5OrmRpF7wYB0vG-19" style="edgeStyle=orthogonalEdgeStyle;rounded=0;orthogonalLoop=1;jettySize=auto;html=1;entryX=0;entryY=0.5;entryDx=0;entryDy=0;" parent="1" source="x7fuLp5OrmRpF7wYB0vG-4" target="x7fuLp5OrmRpF7wYB0vG-18" edge="1">
          <mxGeometry relative="1" as="geometry" />
        </mxCell>
        <mxCell id="x7fuLp5OrmRpF7wYB0vG-20" style="edgeStyle=orthogonalEdgeStyle;rounded=0;orthogonalLoop=1;jettySize=auto;html=1;" parent="1" source="x7fuLp5OrmRpF7wYB0vG-4" target="x7fuLp5OrmRpF7wYB0vG-12" edge="1">
          <mxGeometry relative="1" as="geometry" />
        </mxCell>
        <mxCell id="x7fuLp5OrmRpF7wYB0vG-21" style="edgeStyle=orthogonalEdgeStyle;rounded=0;orthogonalLoop=1;jettySize=auto;html=1;entryX=0;entryY=0.5;entryDx=0;entryDy=0;" parent="1" source="x7fuLp5OrmRpF7wYB0vG-4" target="x7fuLp5OrmRpF7wYB0vG-13" edge="1">
          <mxGeometry relative="1" as="geometry" />
        </mxCell>
        <mxCell id="x7fuLp5OrmRpF7wYB0vG-4" value="" style="html=1;verticalLabelPosition=bottom;align=center;labelBackgroundColor=#ffffff;verticalAlign=top;strokeWidth=2;strokeColor=#0080F0;shadow=0;dashed=0;shape=mxgraph.ios7.icons.folders;" parent="1" vertex="1">
          <mxGeometry x="124" y="155" width="70" height="60" as="geometry" />
        </mxCell>
        <mxCell id="x7fuLp5OrmRpF7wYB0vG-22" style="edgeStyle=orthogonalEdgeStyle;rounded=0;orthogonalLoop=1;jettySize=auto;html=1;" parent="1" source="x7fuLp5OrmRpF7wYB0vG-5" target="x7fuLp5OrmRpF7wYB0vG-14" edge="1">
          <mxGeometry relative="1" as="geometry" />
        </mxCell>
        <mxCell id="x7fuLp5OrmRpF7wYB0vG-24" style="edgeStyle=orthogonalEdgeStyle;rounded=0;orthogonalLoop=1;jettySize=auto;html=1;entryX=0;entryY=0.5;entryDx=0;entryDy=0;" parent="1" source="x7fuLp5OrmRpF7wYB0vG-5" target="x7fuLp5OrmRpF7wYB0vG-16" edge="1">
          <mxGeometry relative="1" as="geometry" />
        </mxCell>
        <mxCell id="x7fuLp5OrmRpF7wYB0vG-5" value="" style="html=1;verticalLabelPosition=bottom;align=center;labelBackgroundColor=#ffffff;verticalAlign=top;strokeWidth=2;strokeColor=#0080F0;shadow=0;dashed=0;shape=mxgraph.ios7.icons.folders;" parent="1" vertex="1">
          <mxGeometry x="124" y="350" width="70" height="60" as="geometry" />
        </mxCell>
        <mxCell id="x7fuLp5OrmRpF7wYB0vG-6" value="&lt;font style=&quot;font-size: 16px;&quot;&gt;&lt;b&gt;CRM&lt;/b&gt;&lt;/font&gt;" style="rounded=0;whiteSpace=wrap;html=1;strokeColor=none;" parent="1" vertex="1">
          <mxGeometry x="99" y="220" width="120" height="30" as="geometry" />
        </mxCell>
        <mxCell id="x7fuLp5OrmRpF7wYB0vG-7" value="&lt;font style=&quot;font-size: 15px;&quot;&gt;&lt;b&gt;ERP&lt;/b&gt;&lt;/font&gt;" style="rounded=0;whiteSpace=wrap;html=1;strokeColor=none;" parent="1" vertex="1">
          <mxGeometry x="99" y="410" width="120" height="30" as="geometry" />
        </mxCell>
        <mxCell id="x7fuLp5OrmRpF7wYB0vG-8" value="" style="rounded=1;whiteSpace=wrap;html=1;fillColor=none;" parent="1" vertex="1">
          <mxGeometry x="300" y="90" width="200" height="390" as="geometry" />
        </mxCell>
        <mxCell id="x7fuLp5OrmRpF7wYB0vG-9" value="&lt;font style=&quot;font-size: 17px;&quot;&gt;&lt;b&gt;Bronze Layer&lt;/b&gt;&lt;/font&gt;" style="rounded=1;whiteSpace=wrap;html=1;strokeColor=#d79b00;fillColor=#ffe6cc;" parent="1" vertex="1">
          <mxGeometry x="340" y="60" width="120" height="40" as="geometry" />
        </mxCell>
        <mxCell id="x7fuLp5OrmRpF7wYB0vG-37" style="edgeStyle=orthogonalEdgeStyle;rounded=0;orthogonalLoop=1;jettySize=auto;html=1;" parent="1" source="x7fuLp5OrmRpF7wYB0vG-12" target="x7fuLp5OrmRpF7wYB0vG-29" edge="1">
          <mxGeometry relative="1" as="geometry" />
        </mxCell>
        <mxCell id="x7fuLp5OrmRpF7wYB0vG-12" value="&lt;font style=&quot;font-size: 13px;&quot;&gt;&lt;b style=&quot;&quot;&gt;crm_prd_info&lt;/b&gt;&lt;/font&gt;" style="rounded=1;whiteSpace=wrap;html=1;fillColor=#ffe6cc;strokeColor=#d79b00;" parent="1" vertex="1">
          <mxGeometry x="340" y="170" width="120" height="30" as="geometry" />
        </mxCell>
        <mxCell id="x7fuLp5OrmRpF7wYB0vG-38" style="edgeStyle=orthogonalEdgeStyle;rounded=0;orthogonalLoop=1;jettySize=auto;html=1;" parent="1" source="x7fuLp5OrmRpF7wYB0vG-13" target="x7fuLp5OrmRpF7wYB0vG-30" edge="1">
          <mxGeometry relative="1" as="geometry" />
        </mxCell>
        <mxCell id="x7fuLp5OrmRpF7wYB0vG-13" value="&lt;font style=&quot;font-size: 13px;&quot;&gt;&lt;b&gt;crm_sales_details&lt;/b&gt;&lt;/font&gt;" style="rounded=1;whiteSpace=wrap;html=1;fillColor=#ffe6cc;strokeColor=#d79b00;" parent="1" vertex="1">
          <mxGeometry x="340" y="220" width="120" height="30" as="geometry" />
        </mxCell>
        <mxCell id="x7fuLp5OrmRpF7wYB0vG-39" style="edgeStyle=orthogonalEdgeStyle;rounded=0;orthogonalLoop=1;jettySize=auto;html=1;" parent="1" source="x7fuLp5OrmRpF7wYB0vG-14" target="x7fuLp5OrmRpF7wYB0vG-31" edge="1">
          <mxGeometry relative="1" as="geometry" />
        </mxCell>
        <mxCell id="x7fuLp5OrmRpF7wYB0vG-14" value="&lt;font style=&quot;font-size: 13px;&quot;&gt;&lt;b&gt;erp_cust_az12&lt;/b&gt;&lt;/font&gt;" style="rounded=1;whiteSpace=wrap;html=1;fillColor=#ffe6cc;strokeColor=#d79b00;" parent="1" vertex="1">
          <mxGeometry x="340" y="320" width="120" height="30" as="geometry" />
        </mxCell>
        <mxCell id="x7fuLp5OrmRpF7wYB0vG-40" style="edgeStyle=orthogonalEdgeStyle;rounded=0;orthogonalLoop=1;jettySize=auto;html=1;" parent="1" source="x7fuLp5OrmRpF7wYB0vG-15" target="x7fuLp5OrmRpF7wYB0vG-32" edge="1">
          <mxGeometry relative="1" as="geometry" />
        </mxCell>
        <mxCell id="x7fuLp5OrmRpF7wYB0vG-15" value="&lt;font style=&quot;font-size: 13px;&quot;&gt;&lt;b&gt;erp_loc_a101&lt;/b&gt;&lt;/font&gt;" style="rounded=1;whiteSpace=wrap;html=1;fillColor=#ffe6cc;strokeColor=#d79b00;" parent="1" vertex="1">
          <mxGeometry x="340" y="370" width="120" height="30" as="geometry" />
        </mxCell>
        <mxCell id="x7fuLp5OrmRpF7wYB0vG-41" style="edgeStyle=orthogonalEdgeStyle;rounded=0;orthogonalLoop=1;jettySize=auto;html=1;" parent="1" source="x7fuLp5OrmRpF7wYB0vG-16" target="x7fuLp5OrmRpF7wYB0vG-33" edge="1">
          <mxGeometry relative="1" as="geometry" />
        </mxCell>
        <mxCell id="x7fuLp5OrmRpF7wYB0vG-16" value="&lt;font style=&quot;font-size: 13px;&quot;&gt;&lt;b&gt;erp_px_cat_g1v2&lt;/b&gt;&lt;/font&gt;" style="rounded=1;whiteSpace=wrap;html=1;fillColor=#ffe6cc;strokeColor=#d79b00;" parent="1" vertex="1">
          <mxGeometry x="340" y="414" width="120" height="30" as="geometry" />
        </mxCell>
        <mxCell id="x7fuLp5OrmRpF7wYB0vG-36" style="edgeStyle=orthogonalEdgeStyle;rounded=0;orthogonalLoop=1;jettySize=auto;html=1;exitX=1;exitY=0.5;exitDx=0;exitDy=0;" parent="1" source="x7fuLp5OrmRpF7wYB0vG-18" target="x7fuLp5OrmRpF7wYB0vG-34" edge="1">
          <mxGeometry relative="1" as="geometry" />
        </mxCell>
        <mxCell id="x7fuLp5OrmRpF7wYB0vG-18" value="&lt;font style=&quot;font-size: 13px;&quot;&gt;&lt;b&gt;crm_cust_info&lt;/b&gt;&lt;/font&gt;" style="rounded=1;whiteSpace=wrap;html=1;fillColor=#ffe6cc;strokeColor=#d79b00;" parent="1" vertex="1">
          <mxGeometry x="340" y="120" width="120" height="30" as="geometry" />
        </mxCell>
        <mxCell id="x7fuLp5OrmRpF7wYB0vG-25" style="edgeStyle=orthogonalEdgeStyle;rounded=0;orthogonalLoop=1;jettySize=auto;html=1;" parent="1" source="x7fuLp5OrmRpF7wYB0vG-5" edge="1">
          <mxGeometry relative="1" as="geometry">
            <mxPoint x="340" y="380" as="targetPoint" />
          </mxGeometry>
        </mxCell>
        <mxCell id="x7fuLp5OrmRpF7wYB0vG-26" style="edgeStyle=orthogonalEdgeStyle;rounded=0;orthogonalLoop=1;jettySize=auto;html=1;exitX=0.5;exitY=1;exitDx=0;exitDy=0;" parent="1" source="x7fuLp5OrmRpF7wYB0vG-16" target="x7fuLp5OrmRpF7wYB0vG-16" edge="1">
          <mxGeometry relative="1" as="geometry" />
        </mxCell>
        <mxCell id="x7fuLp5OrmRpF7wYB0vG-27" value="" style="rounded=1;whiteSpace=wrap;html=1;fillColor=none;" parent="1" vertex="1">
          <mxGeometry x="550" y="90" width="200" height="390" as="geometry" />
        </mxCell>
        <mxCell id="x7fuLp5OrmRpF7wYB0vG-28" value="&lt;font style=&quot;font-size: 17px;&quot;&gt;&lt;b&gt;Silver Layer&lt;/b&gt;&lt;/font&gt;" style="rounded=1;whiteSpace=wrap;html=1;strokeColor=#666666;fillColor=#f5f5f5;fontColor=#333333;" parent="1" vertex="1">
          <mxGeometry x="590" y="60" width="120" height="40" as="geometry" />
        </mxCell>
        <mxCell id="x7fuLp5OrmRpF7wYB0vG-29" value="&lt;font style=&quot;font-size: 13px;&quot;&gt;&lt;b style=&quot;&quot;&gt;crm_prd_info&lt;/b&gt;&lt;/font&gt;" style="rounded=1;whiteSpace=wrap;html=1;fillColor=#f5f5f5;strokeColor=#666666;fontColor=#333333;" parent="1" vertex="1">
          <mxGeometry x="590" y="170" width="120" height="30" as="geometry" />
        </mxCell>
        <mxCell id="x7fuLp5OrmRpF7wYB0vG-30" value="&lt;font style=&quot;font-size: 13px;&quot;&gt;&lt;b&gt;crm_sales_details&lt;/b&gt;&lt;/font&gt;" style="rounded=1;whiteSpace=wrap;html=1;fillColor=#f5f5f5;strokeColor=#666666;fontColor=#333333;" parent="1" vertex="1">
          <mxGeometry x="590" y="220" width="120" height="30" as="geometry" />
        </mxCell>
        <mxCell id="x7fuLp5OrmRpF7wYB0vG-31" value="&lt;font style=&quot;font-size: 13px;&quot;&gt;&lt;b&gt;erp_cust_az12&lt;/b&gt;&lt;/font&gt;" style="rounded=1;whiteSpace=wrap;html=1;fillColor=#f5f5f5;strokeColor=#666666;fontColor=#333333;" parent="1" vertex="1">
          <mxGeometry x="590" y="320" width="120" height="30" as="geometry" />
        </mxCell>
        <mxCell id="x7fuLp5OrmRpF7wYB0vG-32" value="&lt;font style=&quot;font-size: 13px;&quot;&gt;&lt;b&gt;erp_loc_a101&lt;/b&gt;&lt;/font&gt;" style="rounded=1;whiteSpace=wrap;html=1;fillColor=#f5f5f5;strokeColor=#666666;fontColor=#333333;" parent="1" vertex="1">
          <mxGeometry x="590" y="370" width="120" height="30" as="geometry" />
        </mxCell>
        <mxCell id="x7fuLp5OrmRpF7wYB0vG-33" value="&lt;font style=&quot;font-size: 13px;&quot;&gt;&lt;b&gt;erp_px_cat_g1v2&lt;/b&gt;&lt;/font&gt;" style="rounded=1;whiteSpace=wrap;html=1;fillColor=#f5f5f5;strokeColor=#666666;fontColor=#333333;" parent="1" vertex="1">
          <mxGeometry x="590" y="414" width="120" height="30" as="geometry" />
        </mxCell>
        <mxCell id="x7fuLp5OrmRpF7wYB0vG-34" value="&lt;font style=&quot;font-size: 13px;&quot;&gt;&lt;b&gt;crm_cust_info&lt;/b&gt;&lt;/font&gt;" style="rounded=1;whiteSpace=wrap;html=1;fillColor=#f5f5f5;strokeColor=#666666;fontColor=#333333;" parent="1" vertex="1">
          <mxGeometry x="590" y="120" width="120" height="30" as="geometry" />
        </mxCell>
        <mxCell id="x7fuLp5OrmRpF7wYB0vG-35" style="edgeStyle=orthogonalEdgeStyle;rounded=0;orthogonalLoop=1;jettySize=auto;html=1;exitX=0.5;exitY=1;exitDx=0;exitDy=0;" parent="1" source="x7fuLp5OrmRpF7wYB0vG-33" target="x7fuLp5OrmRpF7wYB0vG-33" edge="1">
          <mxGeometry relative="1" as="geometry" />
        </mxCell>
        <mxCell id="xyo9bAkUuXdnFIK56Y8Z-1" value="" style="rounded=1;whiteSpace=wrap;html=1;fillColor=none;" vertex="1" parent="1">
          <mxGeometry x="820" y="90" width="200" height="390" as="geometry" />
        </mxCell>
        <mxCell id="xyo9bAkUuXdnFIK56Y8Z-2" value="&lt;font style=&quot;font-size: 17px;&quot;&gt;&lt;b&gt;Gold Layer&lt;/b&gt;&lt;/font&gt;" style="rounded=1;whiteSpace=wrap;html=1;strokeColor=#d6b656;fillColor=#fff2cc;" vertex="1" parent="1">
          <mxGeometry x="860" y="60" width="120" height="40" as="geometry" />
        </mxCell>
        <mxCell id="xyo9bAkUuXdnFIK56Y8Z-3" value="&lt;span style=&quot;font-size: 13px;&quot;&gt;&lt;b&gt;fact_sales&lt;/b&gt;&lt;/span&gt;" style="rounded=1;whiteSpace=wrap;html=1;fillColor=#fff2cc;strokeColor=#d6b656;" vertex="1" parent="1">
          <mxGeometry x="860" y="270" width="120" height="30" as="geometry" />
        </mxCell>
        <mxCell id="xyo9bAkUuXdnFIK56Y8Z-4" value="&lt;font style=&quot;font-size: 13px;&quot;&gt;&lt;b&gt;dim_products&lt;/b&gt;&lt;/font&gt;" style="rounded=1;whiteSpace=wrap;html=1;fillColor=#fff2cc;strokeColor=#d6b656;" vertex="1" parent="1">
          <mxGeometry x="860" y="330" width="120" height="30" as="geometry" />
        </mxCell>
        <mxCell id="xyo9bAkUuXdnFIK56Y8Z-8" value="&lt;span style=&quot;font-size: 13px;&quot;&gt;&lt;b&gt;dim_customers&lt;/b&gt;&lt;/span&gt;" style="rounded=1;whiteSpace=wrap;html=1;fillColor=#fff2cc;strokeColor=#d6b656;" vertex="1" parent="1">
          <mxGeometry x="860" y="210" width="120" height="30" as="geometry" />
        </mxCell>
        <mxCell id="xyo9bAkUuXdnFIK56Y8Z-9" style="edgeStyle=orthogonalEdgeStyle;rounded=0;orthogonalLoop=1;jettySize=auto;html=1;exitX=0.5;exitY=1;exitDx=0;exitDy=0;" edge="1" parent="1">
          <mxGeometry relative="1" as="geometry">
            <mxPoint x="920" y="444" as="sourcePoint" />
            <mxPoint x="920" y="444" as="targetPoint" />
          </mxGeometry>
        </mxCell>
        <mxCell id="xyo9bAkUuXdnFIK56Y8Z-21" value="" style="endArrow=classic;html=1;rounded=0;exitX=1;exitY=0.5;exitDx=0;exitDy=0;" edge="1" parent="1" source="x7fuLp5OrmRpF7wYB0vG-34" target="xyo9bAkUuXdnFIK56Y8Z-8">
          <mxGeometry width="50" height="50" relative="1" as="geometry">
            <mxPoint x="870" y="310" as="sourcePoint" />
            <mxPoint x="920" y="260" as="targetPoint" />
          </mxGeometry>
        </mxCell>
        <mxCell id="xyo9bAkUuXdnFIK56Y8Z-23" value="" style="endArrow=classic;html=1;rounded=0;exitX=1;exitY=0.5;exitDx=0;exitDy=0;entryX=0.103;entryY=0.873;entryDx=0;entryDy=0;entryPerimeter=0;" edge="1" parent="1" source="x7fuLp5OrmRpF7wYB0vG-32" target="xyo9bAkUuXdnFIK56Y8Z-8">
          <mxGeometry width="50" height="50" relative="1" as="geometry">
            <mxPoint x="870" y="310" as="sourcePoint" />
            <mxPoint x="920" y="260" as="targetPoint" />
          </mxGeometry>
        </mxCell>
        <mxCell id="xyo9bAkUuXdnFIK56Y8Z-24" value="" style="endArrow=classic;html=1;rounded=0;exitX=1;exitY=0.5;exitDx=0;exitDy=0;entryX=0;entryY=0.25;entryDx=0;entryDy=0;" edge="1" parent="1" source="x7fuLp5OrmRpF7wYB0vG-31" target="xyo9bAkUuXdnFIK56Y8Z-8">
          <mxGeometry width="50" height="50" relative="1" as="geometry">
            <mxPoint x="870" y="310" as="sourcePoint" />
            <mxPoint x="920" y="260" as="targetPoint" />
          </mxGeometry>
        </mxCell>
        <mxCell id="xyo9bAkUuXdnFIK56Y8Z-27" value="" style="endArrow=classic;html=1;rounded=0;exitX=1;exitY=0.5;exitDx=0;exitDy=0;entryX=0.5;entryY=0;entryDx=0;entryDy=0;" edge="1" parent="1" source="x7fuLp5OrmRpF7wYB0vG-30" target="xyo9bAkUuXdnFIK56Y8Z-3">
          <mxGeometry width="50" height="50" relative="1" as="geometry">
            <mxPoint x="870" y="310" as="sourcePoint" />
            <mxPoint x="920" y="260" as="targetPoint" />
          </mxGeometry>
        </mxCell>
        <mxCell id="xyo9bAkUuXdnFIK56Y8Z-28" value="" style="endArrow=classic;html=1;rounded=0;exitX=1;exitY=0.5;exitDx=0;exitDy=0;entryX=0;entryY=0.5;entryDx=0;entryDy=0;" edge="1" parent="1" source="x7fuLp5OrmRpF7wYB0vG-33" target="xyo9bAkUuXdnFIK56Y8Z-4">
          <mxGeometry width="50" height="50" relative="1" as="geometry">
            <mxPoint x="870" y="310" as="sourcePoint" />
            <mxPoint x="920" y="260" as="targetPoint" />
          </mxGeometry>
        </mxCell>
        <mxCell id="xyo9bAkUuXdnFIK56Y8Z-29" value="" style="endArrow=classic;html=1;rounded=0;exitX=1;exitY=0.5;exitDx=0;exitDy=0;entryX=0;entryY=0.25;entryDx=0;entryDy=0;" edge="1" parent="1" source="x7fuLp5OrmRpF7wYB0vG-29" target="xyo9bAkUuXdnFIK56Y8Z-4">
          <mxGeometry width="50" height="50" relative="1" as="geometry">
            <mxPoint x="870" y="310" as="sourcePoint" />
            <mxPoint x="920" y="260" as="targetPoint" />
          </mxGeometry>
        </mxCell>
      </root>
    </mxGraphModel>
  </diagram>
</mxfile>
